<?xml version="1.0" standalone="no"?>
<!DOCTYPE svg PUBLIC "-//W3C//DTD SVG 20010904//EN"
 "http://www.w3.org/TR/2001/REC-SVG-20010904/DTD/svg10.dtd">
<svg version="1.0" xmlns="http://www.w3.org/2000/svg"
 width="700.000000pt" height="700.000000pt" viewBox="0 0 700.000000 700.000000"
 preserveAspectRatio="xMidYMid meet">
<metadata>
Created by potrace 1.14, written by Peter Selinger 2001-2017
</metadata>
<g transform="translate(0.000000,700.000000) scale(0.100000,-0.100000)"
fill="#000000" stroke="none">
<path d="M1439 6996 c-2 -2 -29 -7 -59 -9 -59 -6 -69 -7 -175 -33 -271 -63
-510 -194 -717 -392 -265 -253 -419 -556 -476 -937 -9 -65 -9 -4207 0 -4260
26 -139 41 -200 70 -290 74 -224 190 -415 362 -594 252 -261 580 -425 941
-469 78 -9 4162 -9 4237 0 347 45 677 208 920 455 93 94 124 132 198 245 129
195 224 450 248 665 9 91 9 4159 -1 4248 -50 453 -342 904 -742 1144 -89 53
-227 121 -248 121 -7 0 -17 4 -22 9 -13 11 -130 46 -220 65 -38 9 -86 19 -105
23 -36 7 -4203 17 -4211 9z"/>
</g>
</svg>
